<svg xmlns="http://www.w3.org/2000/svg" xmlns:xlink="http://www.w3.org/1999/xlink" width="1920" zoomAndPan="magnify" viewBox="0 0 1440 809.999993" height="1080" preserveAspectRatio="xMidYMid meet" version="1.0"><defs><clipPath id="f725ebd788"><path d="M 0 437.496094 L 268.632812 437.496094 L 268.632812 810 L 0 810 Z M 0 437.496094 " clip-rule="nonzero"/></clipPath><clipPath id="3be89d56e1"><path d="M 0 0.496094 L 268.632812 0.496094 L 268.632812 373 L 0 373 Z M 0 0.496094 " clip-rule="nonzero"/></clipPath><clipPath id="8e84af1189"><rect x="0" width="269" y="0" height="373"/></clipPath><clipPath id="088175d99c"><path d="M 1080 0 L 1440 0 L 1440 397 L 1080 397 Z M 1080 0 " clip-rule="nonzero"/></clipPath><clipPath id="5cbdc6ccd7"><path d="M 1425.132812 445 L 1076.113281 -13.21875 L 1141.148438 -62.75 L 1490.164062 395.464844 Z M 1425.132812 445 " clip-rule="nonzero"/></clipPath><clipPath id="0ee8e01f69"><path d="M 1425.132812 445 L 1076.113281 -13.21875 L 1141.148438 -62.75 L 1490.164062 395.464844 Z M 1425.132812 445 " clip-rule="nonzero"/></clipPath></defs><rect x="-144" width="1728" fill="#ffffff" y="-80.999999" height="971.999992" fill-opacity="1"/><rect x="-144" width="1728" fill="#861010" y="-80.999999" height="971.999992" fill-opacity="1"/><g clip-path="url(#f725ebd788)"><g transform="matrix(1, 0, 0, 1, 0, 437)"><g clip-path="url(#8e84af1189)"><g clip-path="url(#3be89d56e1)"><path fill="#eeeeee" d="M -80.054688 0.667969 L -77.964844 0.953125 C -34.273438 10.308594 4.566406 38.324219 38.554688 84.996094 C 47.132812 98.003906 53.890625 111.671875 58.824219 126 C 80.738281 208.625 92.605469 250.277344 94.421875 250.957031 C 104.03125 272.890625 116.519531 292.699219 131.890625 310.386719 C 162.234375 346.859375 207.832031 378.675781 268.691406 405.828125 C 206.210938 386.214844 156.742188 355.007812 120.292969 312.199219 C 105.625 294.800781 93.640625 275.039062 84.347656 252.910156 C 81.386719 248.011719 69.820312 207.039062 49.644531 129.984375 C 44.886719 116.628906 38.03125 102.640625 29.082031 88.019531 C -0.414062 45.855469 -36.792969 16.738281 -80.054688 0.667969 " fill-opacity="1" fill-rule="nonzero"/></g></g></g></g><g clip-path="url(#088175d99c)"><g clip-path="url(#5cbdc6ccd7)"><g clip-path="url(#0ee8e01f69)"><path fill="#cd6e62" d="M 1489.59375 395.007812 C 1489.707031 395.105469 1489.875 395.710938 1489.09375 395.828125 C 1488.953125 395.851562 1488.816406 395.898438 1488.679688 395.929688 C 1484.039062 396.976562 1479.261719 395.097656 1474.675781 394.121094 C 1466.144531 392 1457.691406 389.378906 1449.613281 385.878906 C 1418.800781 373.980469 1390.753906 355.574219 1367.164062 332.488281 C 1331.007812 292.417969 1305.503906 245.046875 1279.976562 197.648438 C 1255.449219 152.101562 1230.898438 106.542969 1196.890625 67.40625 C 1174.058594 41.90625 1147.476562 18.824219 1116.789062 3.324219 C 1112.519531 1.234375 1108.164062 -0.679688 1103.734375 -2.390625 C 1099.28125 -4.105469 1094.753906 -5.613281 1090.160156 -6.902344 C 1089.59375 -7.0625 1089.027344 -7.21875 1088.457031 -7.371094 C 1085.613281 -8.132812 1080.378906 -7.953125 1080.929688 -12.308594 C 1082.316406 -17.921875 1088.367188 -14.339844 1091.84375 -12.855469 C 1099.65625 -9.378906 1107.378906 -5.691406 1114.914062 -1.632812 C 1139.300781 11.40625 1160.878906 29.128906 1180.890625 48.0625 C 1229.238281 95.171875 1259.570312 156.429688 1292.058594 214.683594 C 1316.566406 257.261719 1341.527344 301.046875 1378.808594 333.8125 C 1401.363281 353.132812 1426.367188 368.816406 1453.691406 380.175781 C 1463.753906 384.761719 1474.316406 388.132812 1484.738281 391.804688 C 1486.519531 392.296875 1488.234375 393.207031 1489.363281 394.6875 C 1489.4375 394.789062 1489.511719 394.902344 1489.59375 395.007812 Z M 1489.59375 395.007812 " fill-opacity="1" fill-rule="nonzero"/></g></g></g></svg>